<mxfile host="65bd71144e">
    <diagram id="b0j4mvC88ctGKoKplCkW" name="Page-1">
        <mxGraphModel dx="742" dy="333" grid="1" gridSize="10" guides="1" tooltips="1" connect="1" arrows="1" fold="1" page="1" pageScale="1" pageWidth="827" pageHeight="1169" math="0" shadow="0">
            <root>
                <mxCell id="0"/>
                <mxCell id="1" parent="0"/>
                <mxCell id="4" style="edgeStyle=none;html=1;exitX=0.5;exitY=1;exitDx=0;exitDy=0;entryX=0.5;entryY=1;entryDx=0;entryDy=0;" edge="1" parent="1" source="2" target="3">
                    <mxGeometry relative="1" as="geometry">
                        <Array as="points">
                            <mxPoint x="160" y="280"/>
                            <mxPoint x="260" y="280"/>
                            <mxPoint x="360" y="280"/>
                        </Array>
                    </mxGeometry>
                </mxCell>
                <mxCell id="5" value="BOTAO == 1 &amp;amp;&amp;amp; SA == 1" style="edgeLabel;html=1;align=center;verticalAlign=middle;resizable=0;points=[];" vertex="1" connectable="0" parent="4">
                    <mxGeometry x="-0.1125" y="-1" relative="1" as="geometry">
                        <mxPoint as="offset"/>
                    </mxGeometry>
                </mxCell>
                <mxCell id="2" value="PORTÃO&lt;br&gt;ABERTO" style="ellipse;whiteSpace=wrap;html=1;aspect=fixed;" vertex="1" parent="1">
                    <mxGeometry x="120" y="140" width="80" height="80" as="geometry"/>
                </mxCell>
                <mxCell id="6" style="edgeStyle=none;html=1;exitX=0.5;exitY=0;exitDx=0;exitDy=0;entryX=0.5;entryY=0;entryDx=0;entryDy=0;" edge="1" parent="1" source="3" target="2">
                    <mxGeometry relative="1" as="geometry">
                        <Array as="points">
                            <mxPoint x="360" y="80"/>
                            <mxPoint x="260" y="80"/>
                            <mxPoint x="160" y="80"/>
                        </Array>
                    </mxGeometry>
                </mxCell>
                <mxCell id="7" value="BOTAO == 1 &amp;amp;&amp;amp; SF == 1" style="edgeLabel;html=1;align=center;verticalAlign=middle;resizable=0;points=[];" vertex="1" connectable="0" parent="6">
                    <mxGeometry x="0.1875" y="3" relative="1" as="geometry">
                        <mxPoint x="30" y="-3" as="offset"/>
                    </mxGeometry>
                </mxCell>
                <mxCell id="3" value="PORTÃO&lt;br&gt;FECHADO" style="ellipse;whiteSpace=wrap;html=1;aspect=fixed;" vertex="1" parent="1">
                    <mxGeometry x="320" y="140" width="80" height="80" as="geometry"/>
                </mxCell>
                <mxCell id="8" value="NO MEIO" style="ellipse;whiteSpace=wrap;html=1;aspect=fixed;" vertex="1" parent="1">
                    <mxGeometry x="520" y="140" width="80" height="80" as="geometry"/>
                </mxCell>
                <mxCell id="10" style="edgeStyle=none;html=1;exitX=0.5;exitY=0;exitDx=0;exitDy=0;entryX=0.5;entryY=0;entryDx=0;entryDy=0;" edge="1" parent="1">
                    <mxGeometry relative="1" as="geometry">
                        <mxPoint x="360" y="140" as="sourcePoint"/>
                        <mxPoint x="560" y="140" as="targetPoint"/>
                        <Array as="points">
                            <mxPoint x="360" y="80"/>
                            <mxPoint x="460" y="80"/>
                            <mxPoint x="560" y="80"/>
                        </Array>
                    </mxGeometry>
                </mxCell>
                <mxCell id="11" value="BOTAO == 1 &amp;amp;&amp;amp; SA == 0&amp;nbsp;&amp;nbsp;&amp;amp;&amp;amp; SF == 0" style="edgeLabel;html=1;align=center;verticalAlign=middle;resizable=0;points=[];" vertex="1" connectable="0" parent="10">
                    <mxGeometry x="0.1875" y="3" relative="1" as="geometry">
                        <mxPoint x="-20" y="3" as="offset"/>
                    </mxGeometry>
                </mxCell>
                <mxCell id="12" style="edgeStyle=none;html=1;exitX=0.5;exitY=1;exitDx=0;exitDy=0;entryX=0.5;entryY=1;entryDx=0;entryDy=0;" edge="1" parent="1" source="2">
                    <mxGeometry relative="1" as="geometry">
                        <mxPoint x="360" y="220" as="sourcePoint"/>
                        <mxPoint x="560" y="220" as="targetPoint"/>
                        <Array as="points">
                            <mxPoint x="160" y="320"/>
                            <mxPoint x="470" y="320"/>
                            <mxPoint x="560" y="320"/>
                        </Array>
                    </mxGeometry>
                </mxCell>
                <mxCell id="13" value="BOTAO == 1 &amp;amp;&amp;amp; SA == 0 &amp;amp;&amp;amp; SF == 0" style="edgeLabel;html=1;align=center;verticalAlign=middle;resizable=0;points=[];" vertex="1" connectable="0" parent="12">
                    <mxGeometry x="-0.1125" y="-1" relative="1" as="geometry">
                        <mxPoint as="offset"/>
                    </mxGeometry>
                </mxCell>
            </root>
        </mxGraphModel>
    </diagram>
</mxfile>